<?xml version="1.0" standalone="no"?>
<!DOCTYPE svg PUBLIC "-//W3C//DTD SVG 20010904//EN"
 "http://www.w3.org/TR/2001/REC-SVG-20010904/DTD/svg10.dtd">
<svg version="1.0" xmlns="http://www.w3.org/2000/svg"
 width="1080.000000pt" height="1080.000000pt" viewBox="0 0 1080.000000 1080.000000"
 preserveAspectRatio="xMidYMid meet">
<metadata>
Created by potrace 1.14, written by Peter Selinger 2001-2017
</metadata>
<g transform="translate(0.000000,1080.000000) scale(0.100000,-0.100000)"
fill="#000000" stroke="none">
<path d="M5267 9494 c-1 -1 -51 -5 -112 -9 -60 -3 -121 -8 -135 -10 -14 -3
-50 -7 -80 -10 -59 -6 -59 -6 -195 -29 -250 -43 -587 -137 -760 -211 -16 -7
-61 -25 -100 -40 -381 -152 -801 -416 -1145 -720 -75 -67 -272 -265 -346 -350
-424 -484 -729 -1065 -878 -1677 -19 -79 -37 -156 -40 -173 -3 -16 -8 -39 -10
-50 -2 -11 -7 -40 -11 -65 -4 -25 -9 -52 -10 -60 -2 -8 -6 -44 -10 -80 -4 -36
-9 -68 -10 -71 -18 -28 -27 -604 -13 -784 8 -97 34 -295 48 -360 5 -22 11 -56
14 -75 11 -67 17 -95 26 -125 5 -16 12 -43 14 -60 11 -60 89 -313 137 -442
169 -451 424 -879 738 -1238 83 -94 321 -328 418 -410 171 -146 420 -324 583
-417 25 -14 63 -36 85 -48 262 -149 747 -341 975 -386 14 -3 50 -11 80 -19 30
-8 96 -21 145 -30 50 -10 97 -19 106 -20 38 -7 89 -15 144 -21 32 -3 67 -7 77
-9 130 -25 866 -25 908 0 3 1 39 6 80 10 41 4 77 9 80 10 3 2 24 6 46 9 22 4
51 9 64 11 14 3 43 8 65 11 174 26 619 164 820 254 236 106 332 157 553 293
306 187 664 491 887 752 33 39 62 72 65 75 45 42 236 303 322 440 242 387 396
752 508 1210 15 63 31 138 36 165 4 28 8 55 10 60 4 19 23 140 29 194 4 30 8
61 10 70 16 84 25 525 14 666 -17 203 -20 232 -24 255 -2 14 -6 45 -9 70 -31
264 -136 646 -261 951 -401 978 -1190 1767 -2182 2183 -117 49 -349 132 -394
141 -9 2 -48 13 -86 24 -64 19 -245 62 -318 75 -87 16 -206 35 -255 41 -30 3
-71 8 -90 10 -108 12 -217 18 -403 20 -114 1 -208 1 -210 -1z m493 -328 c183
-20 245 -28 305 -40 11 -2 40 -7 65 -12 25 -4 47 -8 50 -9 3 -1 25 -5 50 -9
144 -25 418 -108 617 -186 363 -144 733 -366 1038 -625 73 -62 333 -319 404
-400 120 -136 294 -382 409 -575 42 -72 175 -340 201 -405 5 -11 13 -31 19
-45 47 -109 158 -460 176 -555 3 -16 16 -88 30 -160 14 -71 28 -156 31 -188 4
-32 8 -66 10 -75 9 -48 18 -245 19 -387 0 -152 -12 -403 -20 -416 -2 -3 -6
-33 -9 -65 -20 -204 -90 -496 -179 -751 -289 -823 -895 -1545 -1663 -1982
-163 -92 -538 -263 -608 -277 -5 -1 -30 -10 -55 -19 -159 -59 -505 -139 -695
-160 -33 -4 -63 -9 -66 -11 -16 -9 -251 -19 -449 -19 -200 1 -306 6 -420 20
-19 2 -55 7 -80 10 -273 34 -631 129 -900 239 -129 54 -343 155 -398 190 -20
12 -58 34 -83 48 -83 47 -94 53 -99 59 -3 3 -15 11 -28 18 -53 28 -334 233
-372 271 -3 3 -36 32 -75 64 -69 59 -296 283 -345 341 -358 423 -579 809 -740
1295 -33 98 -89 306 -105 390 -10 51 -35 196 -40 235 -3 22 -7 54 -10 70 -28
179 -27 657 0 875 16 123 50 307 76 415 16 66 31 127 33 135 7 29 87 275 96
295 5 11 25 61 45 110 113 278 273 558 469 818 100 133 124 162 226 271 162
174 293 296 430 401 35 28 71 56 80 63 57 47 217 151 405 265 68 41 334 169
443 212 178 72 440 153 572 179 14 3 71 14 128 26 57 11 124 23 150 26 26 3
58 7 72 9 39 7 98 13 190 20 47 4 86 8 87 9 6 5 455 -2 513 -8z"/>
<path d="M5317 8674 c-1 -1 -49 -5 -107 -8 -58 -4 -112 -9 -120 -11 -8 -2 -42
-7 -75 -10 -142 -14 -370 -67 -575 -135 -478 -158 -953 -458 -1291 -815 -105
-111 -122 -130 -178 -200 -31 -38 -58 -72 -61 -75 -25 -23 -166 -235 -233
-350 -161 -277 -317 -688 -363 -960 -3 -14 -9 -47 -14 -75 -5 -27 -12 -72 -16
-100 -3 -27 -8 -58 -10 -68 -25 -136 -25 -631 1 -789 2 -13 6 -41 10 -63 37
-255 99 -485 199 -732 213 -529 548 -972 1008 -1333 365 -288 855 -515 1303
-604 44 -9 91 -19 105 -21 231 -48 673 -61 921 -29 127 16 275 42 349 59 14 3
36 8 50 11 14 3 86 23 160 45 665 199 1240 601 1656 1160 43 58 84 115 91 125
7 10 28 43 48 73 19 29 35 54 35 56 0 2 20 38 46 80 51 87 137 265 179 370 15
39 31 79 36 90 39 94 122 391 145 525 4 25 8 47 9 50 1 3 5 32 9 65 4 32 10
68 12 80 18 91 26 520 11 670 -11 117 -31 256 -52 369 -25 128 -117 434 -160
531 -7 17 -28 64 -45 105 -78 184 -189 378 -334 585 -123 176 -359 428 -546
584 -511 426 -1122 676 -1800 737 -68 6 -398 13 -403 8z m383 -328 c47 -3 99
-8 115 -11 17 -3 46 -7 65 -9 357 -50 761 -194 1075 -385 75 -46 269 -180 301
-209 11 -9 49 -41 84 -71 212 -176 450 -458 604 -714 152 -253 302 -634 341
-867 3 -19 8 -42 10 -50 9 -31 16 -79 40 -260 10 -74 13 -469 4 -550 -12 -106
-18 -157 -29 -220 -16 -93 -18 -102 -40 -190 -11 -47 -23 -95 -26 -108 -5 -26
-70 -216 -104 -307 -42 -109 -174 -358 -261 -490 -342 -520 -835 -913 -1414
-1128 -98 -36 -250 -83 -335 -103 -69 -15 -164 -35 -192 -38 -30 -5 -62 -9
-143 -21 -67 -9 -217 -17 -330 -18 -460 0 -900 104 -1313 312 -85 43 -254 140
-262 151 -3 3 -12 9 -20 12 -8 3 -64 43 -125 88 -327 246 -577 523 -780 866
-84 141 -138 257 -225 479 -46 117 -118 397 -134 520 -6 51 -14 108 -22 165
-10 72 -12 448 -3 530 4 41 11 100 14 130 5 51 7 65 20 130 3 14 8 41 11 60 3
19 8 38 10 41 2 3 6 21 9 40 17 99 114 395 172 519 153 334 341 607 588 856
135 135 194 187 334 291 301 224 635 383 1006 478 147 38 150 39 262 55 43 6
89 13 103 16 14 2 70 7 125 10 55 3 101 7 102 8 5 4 280 -2 363 -8z"/>
<path d="M5321 7585 c-95 -21 -219 -87 -296 -157 -127 -117 -207 -262 -242
-442 -10 -50 -12 -2080 -2 -2133 12 -63 63 -166 106 -214 44 -49 124 -101 188
-123 31 -11 96 -20 170 -23 66 -3 121 -6 122 -7 6 -4 11 -636 5 -637 -4 0 -14
-2 -22 -3 -8 -2 -50 -6 -94 -10 -226 -19 -370 -80 -400 -169 -18 -53 -10 -83
34 -127 80 -80 259 -120 555 -125 195 -3 338 12 465 47 87 24 115 37 153 73
71 68 58 157 -31 214 -80 50 -217 81 -420 95 -23 2 -44 5 -47 8 -3 2 -8 147
-11 321 l-5 317 83 1 c121 0 165 8 245 41 130 53 227 174 256 318 10 51 13
278 12 1065 -1 550 -5 1020 -9 1045 -9 47 -9 49 -26 119 -16 64 -81 190 -133
258 -90 116 -229 209 -367 244 -69 17 -217 19 -289 4z"/>
</g>
</svg>
